<svg width="82" height="22" viewBox="0 0 82 22" fill="none" xmlns="http://www.w3.org/2000/svg">
<path d="M18.7604 0.70874L14.9212 12.5207H12.004L9.42213 4.52232L6.75644 12.5207H3.85603L0 0.70874H2.81658L5.46551 9.01088L8.23179 0.70874H10.7466L13.4291 9.07838L16.1618 0.70874H18.7604Z" fill="#FFD22E"/>
<path d="M28.2564 8.01529C28.2564 8.04904 28.2396 8.28528 28.206 8.724H21.3826C21.5054 9.28649 21.7961 9.73084 22.2543 10.0571C22.7125 10.3833 23.2827 10.5464 23.9644 10.5464C24.4339 10.5464 24.8474 10.4789 25.2051 10.3439C25.5738 10.1977 25.9147 9.97271 26.2277 9.66897L27.6193 11.1876C26.7698 12.1664 25.5292 12.6557 23.8973 12.6557C22.8802 12.6557 21.9804 12.4588 21.1981 12.0651C20.4157 11.6601 19.8121 11.1033 19.3875 10.3946C18.9627 9.68583 18.7504 8.8815 18.7504 7.98154C18.7504 7.09283 18.9571 6.29412 19.3707 5.58539C19.7953 4.86542 20.371 4.30858 21.0976 3.91484C21.8352 3.50987 22.6566 3.30737 23.5619 3.30737C24.4449 3.30737 25.2442 3.49861 25.9595 3.88109C26.6748 4.26358 27.2336 4.81481 27.6361 5.53478C28.0496 6.24349 28.2564 7.07032 28.2564 8.01529ZM23.5787 5.29854C22.9864 5.29854 22.489 5.46728 22.0867 5.80475C21.6843 6.14224 21.4385 6.60348 21.349 7.18845H25.7918C25.7024 6.61472 25.4565 6.15912 25.0542 5.82163C24.6517 5.4729 24.16 5.29854 23.5787 5.29854Z" fill="#FFD22E"/>
<path d="M35.3289 3.30736C36.1673 3.30736 36.9273 3.50421 37.609 3.89796C38.302 4.28044 38.8441 4.82604 39.2354 5.53477C39.6264 6.23223 39.8221 7.04782 39.8221 7.98153C39.8221 8.91524 39.6264 9.73645 39.2354 10.4452C38.8441 11.1426 38.302 11.6882 37.609 12.082C36.9273 12.4644 36.1673 12.6557 35.3289 12.6557C34.0883 12.6557 33.1439 12.262 32.4957 11.4745V12.5207H29.9976V0H32.613V4.40419C33.2724 3.67296 34.1777 3.30736 35.3289 3.30736ZM34.8763 10.4958C35.547 10.4958 36.0946 10.2708 36.5192 9.82082C36.9553 9.35959 37.1731 8.74649 37.1731 7.98153C37.1731 7.21657 36.9553 6.60909 36.5192 6.15911C36.0946 5.69787 35.547 5.46727 34.8763 5.46727C34.2058 5.46727 33.6524 5.69787 33.2165 6.15911C32.7919 6.60909 32.5794 7.21657 32.5794 7.98153C32.5794 8.74649 32.7919 9.35959 33.2165 9.82082C33.6524 10.2708 34.2058 10.4958 34.8763 10.4958Z" fill="#FFD22E"/>
<path d="M52.5208 0.70874V12.5207H49.8047V7.67781H44.4733V12.5207H41.7573V0.70874H44.4733V5.36604H49.8047V0.70874H52.5208Z" fill="#FFD22E"/>
<path d="M63.9481 8.01529C63.9481 8.04904 63.9313 8.28528 63.8979 8.724H57.0743C57.1973 9.28649 57.4879 9.73084 57.9462 10.0571C58.4044 10.3833 58.9744 10.5464 59.6562 10.5464C60.1256 10.5464 60.5391 10.4789 60.8968 10.3439C61.2657 10.1977 61.6066 9.97271 61.9196 9.66897L63.311 11.1876C62.4616 12.1664 61.2211 12.6557 59.5892 12.6557C58.5721 12.6557 57.6723 12.4588 56.89 12.0651C56.1076 11.6601 55.504 11.1033 55.0792 10.3946C54.6546 9.68583 54.4423 8.8815 54.4423 7.98154C54.4423 7.09283 54.649 6.29412 55.0626 5.58539C55.4872 4.86542 56.0629 4.30858 56.7893 3.91484C57.527 3.50987 58.3485 3.30737 59.2538 3.30737C60.1368 3.30737 60.9359 3.49861 61.6512 3.88109C62.3666 4.26358 62.9255 4.81481 63.3278 5.53478C63.7413 6.24349 63.9481 7.07032 63.9481 8.01529ZM59.2706 5.29854C58.6783 5.29854 58.1809 5.46728 57.7786 5.80475C57.3761 6.14224 57.1302 6.60348 57.0409 7.18845H61.4836C61.3943 6.61472 61.1484 6.15912 60.7459 5.82163C60.3436 5.4729 59.8519 5.29854 59.2706 5.29854Z" fill="#FFD22E"/>
<path d="M68.1875 4.64044C68.5005 4.20171 68.9196 3.86984 69.445 3.64486C69.9815 3.41986 70.5962 3.30737 71.2892 3.30737V5.73727C70.9986 5.71477 70.8029 5.70352 70.7024 5.70352C69.9535 5.70352 69.3667 5.91726 68.9421 6.34473C68.5173 6.76096 68.305 7.39095 68.305 8.23465V12.5207H65.6896V3.44237H68.1875V4.64044Z" fill="#FFD22E"/>
<path d="M77.0543 12.6557C76.1042 12.6557 75.2492 12.4588 74.4892 12.0651C73.7403 11.6601 73.1536 11.1033 72.7288 10.3946C72.3042 9.68583 72.0917 8.8815 72.0917 7.98154C72.0917 7.08159 72.3042 6.27724 72.7288 5.56853C73.1536 4.8598 73.7403 4.30858 74.4892 3.91484C75.2492 3.50987 76.1042 3.30737 77.0543 3.30737C78.0043 3.30737 78.8537 3.50987 79.6026 3.91484C80.3515 4.30858 80.9383 4.8598 81.3631 5.56853C81.7877 6.27724 82 7.08159 82 7.98154C82 8.8815 81.7877 9.68583 81.3631 10.3946C80.9383 11.1033 80.3515 11.6601 79.6026 12.0651C78.8537 12.4588 78.0043 12.6557 77.0543 12.6557ZM77.0543 10.4958C77.7248 10.4958 78.2726 10.2708 78.6973 9.82083C79.1332 9.35961 79.3512 8.7465 79.3512 7.98154C79.3512 7.21658 79.1332 6.6091 78.6973 6.15912C78.2726 5.69788 77.7248 5.46728 77.0543 5.46728C76.3836 5.46728 75.8304 5.69788 75.3946 6.15912C74.9587 6.6091 74.7407 7.21658 74.7407 7.98154C74.7407 8.7465 74.9587 9.35961 75.3946 9.82083C75.8304 10.2708 76.3836 10.4958 77.0543 10.4958Z" fill="#FFD22E"/>
<path d="M52.9735 22.0001C52.4688 22.0001 51.9802 21.923 51.5076 21.7687C51.0415 21.6081 50.6741 21.4023 50.4059 21.1516L50.7604 20.3995C51.0158 20.6309 51.3416 20.8205 51.7375 20.9684C52.14 21.1099 52.5519 21.1807 52.9735 21.1807C53.529 21.1807 53.9442 21.0873 54.2188 20.9009C54.4934 20.7081 54.6309 20.4542 54.6309 20.1391C54.6309 19.9079 54.5542 19.7213 54.4009 19.58C54.2539 19.4321 54.0688 19.3197 53.8452 19.2425C53.628 19.1653 53.3184 19.0786 52.9159 18.9822C52.4114 18.8599 52.0027 18.7379 51.6897 18.6156C51.383 18.4936 51.118 18.3072 50.8945 18.0565C50.6773 17.7994 50.5689 17.4555 50.5689 17.0246C50.5689 16.6647 50.6613 16.34 50.8466 16.0508C51.0383 15.7615 51.3256 15.5301 51.7088 15.3565C52.092 15.183 52.5678 15.0962 53.1363 15.0962C53.5322 15.0962 53.9219 15.1476 54.3051 15.2505C54.6883 15.3533 55.0172 15.5012 55.2918 15.694L54.9756 16.4654C54.6946 16.2855 54.3946 16.1504 54.0752 16.0604C53.7558 15.964 53.4429 15.9158 53.1363 15.9158C52.5935 15.9158 52.1846 16.0154 51.9101 16.2147C51.6418 16.4139 51.5076 16.6711 51.5076 16.9861C51.5076 17.2176 51.5843 17.4072 51.7375 17.5551C51.8909 17.6964 52.0792 17.809 52.3028 17.8925C52.5327 17.9697 52.8426 18.0533 53.2321 18.1433C53.7366 18.2653 54.1421 18.3876 54.4488 18.5096C54.7554 18.6317 55.0172 18.8182 55.2344 19.0689C55.4578 19.3197 55.5696 19.6571 55.5696 20.0814C55.5696 20.4349 55.4739 20.7596 55.2823 21.0552C55.0906 21.3444 54.8001 21.5759 54.4105 21.7494C54.0208 21.9166 53.5418 22.0001 52.9735 22.0001Z" fill="black"/>
<path d="M59.0482 21.9808C58.5307 21.9808 58.0678 21.8684 57.659 21.6433C57.2567 21.4183 56.9404 21.1098 56.7105 20.7176C56.4806 20.319 56.3656 19.8691 56.3656 19.3677C56.3656 18.8662 56.4806 18.4195 56.7105 18.0273C56.9404 17.6289 57.2567 17.3203 57.659 17.1016C58.0678 16.8768 58.5307 16.7642 59.0482 16.7642C59.508 16.7642 59.9167 16.8575 60.2744 17.0439C60.6384 17.2303 60.9194 17.5003 61.1174 17.8538L60.418 18.3071C60.2584 18.0628 60.0604 17.8796 59.8241 17.7574C59.5878 17.6353 59.3259 17.5742 59.0386 17.5742C58.7064 17.5742 58.4062 17.6481 58.138 17.796C57.8761 17.9438 57.6685 18.156 57.5153 18.4324C57.3684 18.7023 57.2949 19.0141 57.2949 19.3677C57.2949 19.7276 57.3684 20.0458 57.5153 20.3222C57.6685 20.5923 57.8761 20.8012 58.138 20.9491C58.4062 21.097 58.7064 21.1708 59.0386 21.1708C59.3259 21.1708 59.5878 21.1098 59.8241 20.9876C60.0604 20.8655 60.2584 20.6823 60.418 20.438L61.1174 20.8815C60.9194 21.2351 60.6384 21.5082 60.2744 21.7012C59.9167 21.8876 59.508 21.9808 59.0482 21.9808Z" fill="black"/>
<path d="M64.9538 16.764C65.5988 16.764 66.1099 16.9537 66.4867 17.3329C66.8698 17.7059 67.0615 18.2554 67.0615 18.9819V21.9227H66.1418V19.0879C66.1418 18.5929 66.0236 18.2201 65.7873 17.9694C65.551 17.7187 65.2124 17.5933 64.7717 17.5933C64.2736 17.5933 63.8808 17.7412 63.5935 18.0368C63.306 18.3261 63.1623 18.744 63.1623 19.2903V21.9227H62.2426V14.7681H63.1623V17.5355C63.354 17.2912 63.6031 17.1015 63.9095 16.9666C64.2225 16.8315 64.5706 16.764 64.9538 16.764Z" fill="black"/>
<path d="M70.9663 21.9808C70.4617 21.9808 70.0082 21.8684 69.6059 21.6433C69.2035 21.4183 68.8874 21.1098 68.6575 20.7176C68.4339 20.319 68.3221 19.8691 68.3221 19.3677C68.3221 18.8662 68.4339 18.4195 68.6575 18.0273C68.8874 17.6289 69.2035 17.3203 69.6059 17.1016C70.0082 16.8768 70.4617 16.7642 70.9663 16.7642C71.4708 16.7642 71.9211 16.8768 72.317 17.1016C72.7195 17.3203 73.0324 17.6289 73.2559 18.0273C73.4859 18.4195 73.6008 18.8662 73.6008 19.3677C73.6008 19.8691 73.4859 20.319 73.2559 20.7176C73.0324 21.1098 72.7195 21.4183 72.317 21.6433C71.9211 21.8684 71.4708 21.9808 70.9663 21.9808ZM70.9663 21.1708C71.292 21.1708 71.5826 21.097 71.838 20.9491C72.1 20.7948 72.3043 20.5826 72.4511 20.3126C72.5982 20.0362 72.6715 19.7212 72.6715 19.3677C72.6715 19.0141 72.5982 18.7023 72.4511 18.4324C72.3043 18.156 72.1 17.9438 71.838 17.796C71.5826 17.6481 71.292 17.5742 70.9663 17.5742C70.6405 17.5742 70.3468 17.6481 70.085 17.796C69.8295 17.9438 69.6251 18.156 69.4718 18.4324C69.3248 18.7023 69.2515 19.0141 69.2515 19.3677C69.2515 19.7212 69.3248 20.0362 69.4718 20.3126C69.6251 20.5826 69.8295 20.7948 70.085 20.9491C70.3468 21.097 70.6405 21.1708 70.9663 21.1708Z" fill="black"/>
<path d="M77.0476 21.9808C76.5429 21.9808 76.0896 21.8684 75.6871 21.6433C75.2848 21.4183 74.9686 21.1098 74.7387 20.7176C74.5151 20.319 74.4033 19.8691 74.4033 19.3677C74.4033 18.8662 74.5151 18.4195 74.7387 18.0273C74.9686 17.6289 75.2848 17.3203 75.6871 17.1016C76.0896 16.8768 76.5429 16.7642 77.0476 16.7642C77.5521 16.7642 78.0024 16.8768 78.3984 17.1016C78.8007 17.3203 79.1137 17.6289 79.3373 18.0273C79.5672 18.4195 79.6822 18.8662 79.6822 19.3677C79.6822 19.8691 79.5672 20.319 79.3373 20.7176C79.1137 21.1098 78.8007 21.4183 78.3984 21.6433C78.0024 21.8684 77.5521 21.9808 77.0476 21.9808ZM77.0476 21.1708C77.3732 21.1708 77.6639 21.097 77.9194 20.9491C78.1812 20.7948 78.3856 20.5826 78.5325 20.3126C78.6793 20.0362 78.7528 19.7212 78.7528 19.3677C78.7528 19.0141 78.6793 18.7023 78.5325 18.4324C78.3856 18.156 78.1812 17.9438 77.9194 17.796C77.6639 17.6481 77.3732 17.5742 77.0476 17.5742C76.7218 17.5742 76.428 17.6481 76.1661 17.796C75.9107 17.9438 75.7062 18.156 75.553 18.4324C75.4062 18.7023 75.3326 19.0141 75.3326 19.3677C75.3326 19.7212 75.4062 20.0362 75.553 20.3126C75.7062 20.5826 75.9107 20.7948 76.1661 20.9491C76.428 21.097 76.7218 21.1708 77.0476 21.1708Z" fill="black"/>
<path d="M80.954 14.7681H81.8737V21.9227H80.954V14.7681Z" fill="black"/>
</svg>
